# xmcd CD database file
#
# Track frame offsets:
#	150
#	18032
#	38580
#	57107
#	79015
#	96625
#	126625
#	146575
#	165252
#	186365
#	200275
#
# Disc length: 2923 seconds
#
# Revision: 0
# Processed by: cddbd v1.5.1PL2 Copyright (c) Steve Scherf et al.
# Submitted via: CDex 1.51
#
DISCID=8e0b690b
DTITLE=Alain Dupuis (saxophone) - Sax en fête
DYEAR=1900
DGENRE=Noel
TTITLE0=Joyeux Noel
TTITLE1=le bonhomme d'hiver
TTITLE2=le petit renne au nez rouge
TTITLE3=Sainte Nuit (Bruno Pelletier)
TTITLE4=Noel Blanc
TTITLE5=Avé Maria
TTITLE6=pèere noel arrive ce soir
TTITLE7=les enfants oubliés
TTITLE8=Minuit Chrétien
TTITLE9=vive le vent
TTITLE10=ce n'est qu'un au revoir
EXTD=
EXTT0=
EXTT1=
EXTT2=
EXTT3=
EXTT4=
EXTT5=
EXTT6=
EXTT7=
EXTT8=
EXTT9=
EXTT10=
PLAYORDER=
